<svg width="135" height="135" viewBox="0 0 135 135" fill="none" xmlns="http://www.w3.org/2000/svg">
<path d="M45.3532 23.1711H23.1711V45.3532H45.3532V23.1711Z" fill="#00F2B2"/>
<path d="M111.9 23.1711H89.7174V45.3532H111.9V23.1711Z" fill="#00F2B2"/>
<path d="M89.7174 45.3532H67.5353V67.5353H89.7174V45.3532Z" fill="#00F2B2"/>
<path d="M45.3532 89.7174H23.1711V111.899H45.3532V89.7174Z" fill="#00F2B2"/>
<path d="M111.9 89.7174H89.7174V111.899H111.9V89.7174Z" fill="#00F2B2"/>
<path d="M67.5354 67.5353H45.3533V89.7174H67.5354V67.5353Z" fill="#00F2B2"/>
<path d="M45.3532 46.3422H0.989012C0.423863 46.3422 0 45.9184 0 45.3532V0.988985C0 0.423836 0.423863 0 0.989012 0H45.3532C45.9184 0 46.3422 0.423836 46.3422 0.988985V45.3532C46.3422 45.9184 45.9184 46.3422 45.3532 46.3422ZM1.97802 44.3642H44.3642V1.97801H1.97802V44.3642Z" fill="black"/>
<path d="M67.5353 68.5243H23.1711C22.606 68.5243 22.1821 68.1004 22.1821 67.5353V23.1711C22.1821 22.6059 22.606 22.1821 23.1711 22.1821H67.5353C68.1005 22.1821 68.5244 22.6059 68.5244 23.1711V67.5353C68.5244 68.1004 68.1005 68.5243 67.5353 68.5243ZM24.1601 66.5463H66.5463V24.1601H24.1601V66.5463Z" fill="black"/>
<path d="M111.899 46.3422H67.5353C66.9701 46.3422 66.5463 45.9184 66.5463 45.3532V0.988985C66.5463 0.423836 66.9701 0 67.5353 0H111.899C112.465 0 112.888 0.423836 112.888 0.988985V45.3532C112.888 45.9184 112.394 46.3422 111.899 46.3422ZM68.5243 44.3642H110.91V1.97801H68.5243V44.3642Z" fill="black"/>
<path d="M134.011 68.5243H89.6467C89.0816 68.5243 88.6577 68.1004 88.6577 67.5353V23.1711C88.6577 22.6059 89.0816 22.1821 89.6467 22.1821H134.011C134.576 22.1821 135 22.6059 135 23.1711V67.5353C135 68.1004 134.576 68.5243 134.011 68.5243ZM90.7064 66.5463H133.093V24.1601H90.7064V66.5463Z" fill="black"/>
<path d="M45.3532 112.889H0.989012C0.423863 112.889 0 112.465 0 111.9V67.5353C0 66.9702 0.423863 66.5463 0.989012 66.5463H45.3532C45.9184 66.5463 46.3422 66.9702 46.3422 67.5353V111.9C46.3422 112.394 45.9184 112.889 45.3532 112.889ZM1.97802 110.911H44.3642V68.5243H1.97802V110.911Z" fill="black"/>
<path d="M67.5353 135H23.1711C22.606 135 22.1821 134.576 22.1821 134.011V89.6468C22.1821 89.0816 22.606 88.6578 23.1711 88.6578H67.5353C68.1005 88.6578 68.5244 89.0816 68.5244 89.6468V134.011C68.5244 134.576 68.1005 135 67.5353 135ZM24.1601 133.022H66.5463V90.6358H24.1601V133.022Z" fill="black"/>
<path d="M111.899 112.889H67.5353C66.9701 112.889 66.5463 112.465 66.5463 111.9V67.5353C66.5463 66.9702 66.9701 66.5463 67.5353 66.5463H111.899C112.465 66.5463 112.888 66.9702 112.888 67.5353V111.9C112.888 112.394 112.394 112.889 111.899 112.889ZM68.5243 110.911H110.91V68.5243H68.5243V110.911Z" fill="black"/>
<path d="M134.011 135H89.6467C89.0816 135 88.6577 134.576 88.6577 134.011V89.6468C88.6577 89.0816 89.0816 88.6578 89.6467 88.6578H134.011C134.576 88.6578 135 89.0816 135 89.6468V134.011C135 134.576 134.576 135 134.011 135ZM90.7064 133.022H133.093V90.6358H90.7064V133.022Z" fill="black"/>
</svg>
