<svg width="87" height="135" viewBox="0 0 87 135" fill="none" xmlns="http://www.w3.org/2000/svg">
<path d="M43.4016 84.7132C66.3531 84.7132 84.9591 66.1072 84.9591 43.1557C84.9591 20.2042 66.3531 1.59836 43.4016 1.59836C20.4501 1.59836 1.84424 20.2042 1.84424 43.1557C1.84424 66.1072 20.4501 84.7132 43.4016 84.7132Z" fill="#00F2B2"/>
<path d="M0 91.7213V43.2787C0 19.4262 19.4263 0 43.2787 0C67.1312 0 86.5574 19.4262 86.5574 43.2787V91.7213H83.1148V43.2787C83.1148 21.2705 65.164 3.44261 43.2787 3.44261C21.3935 3.44261 3.44261 21.3934 3.44261 43.2787V91.7213H0Z" fill="black"/>
<path d="M0 91.7213C0 67.8688 19.4263 48.4426 43.2787 48.4426C67.1312 48.4426 86.5574 67.8688 86.5574 91.7213C86.5574 115.574 67.1312 135 43.2787 135C19.4263 135 0 115.574 0 91.7213ZM83.2377 91.7213C83.2377 69.7131 65.2869 51.8852 43.4016 51.8852C21.5164 51.8852 3.56561 69.836 3.56561 91.7213C3.56561 113.607 21.5164 131.557 43.4016 131.557C65.2869 131.557 83.2377 113.607 83.2377 91.7213Z" fill="black"/>
</svg>
